<svg width="31" height="32" viewBox="0 0 31 32" fill="none" xmlns="http://www.w3.org/2000/svg">
<path d="M17.9868 7V5C17.9868 3.394 16.6616 2.069 15 2.069C13.3384 2.069 12.0132 3.394 12.0132 5V7H10V5C10 2.239 12.2386 0 15 0C17.7614 0 20 2.239 20 5V7H17.9868ZM20 7H17.9868V5C17.9868 3.394 16.6616 2.069 15 2.069C13.3384 2.069 12.0132 3.394 12.0132 5V7H10V5C10 2.239 12.2386 0 15 0C17.7614 0 20 2.239 20 5V7Z" fill="#1A1A1A"/>
<path fill-rule="evenodd" clip-rule="evenodd" d="M0.409119 8H30.5909L31 32H15H0L0.409119 8Z" fill="#1A1A1A"/>
</svg>
