<svg width="27" height="30" viewBox="0 0 27 30" fill="none" xmlns="http://www.w3.org/2000/svg">
<path fill-rule="evenodd" clip-rule="evenodd" d="M24.0636 5.088C22.4035 5.408 20.7768 5.80698 19.4493 6.20198L0.515792 10.733C0.0723929 10.072 -0.238805 9.17299 0.242538 8.18199C1.58013 5.42799 2.57983 6.69298 3.52629 4.83098C4.86388 2.19698 6.18179 1.31197 9.48527 1.71797C11.2257 1.93197 13.0441 -1.20602 16.9044 0.52098C18.242 1.11998 19.9416 0.245983 21.2828 0.999983C23.6409 2.32598 24.082 3.724 24.0636 5.088ZM6.42589 23.115C9.32101 22.229 11.7438 20.52 11.1487 18.898C10.828 18.024 10.3582 17.663 9.5551 17.47C8.90697 17.315 8.68473 17.206 8.15068 16.638C7.17232 15.597 7.53769 14.8 8.49712 14.577C8.86553 14.491 9.3765 14.666 10.1424 15.167C10.3849 15.325 10.6032 15.48 11.0286 15.79C13.4978 17.591 14.6529 18.035 16.1804 16.774C16.5534 16.466 16.823 16.14 16.9923 15.773C17.1954 15.333 17.236 14.885 17.1586 14.392C17.1316 14.219 17.0918 14.047 17.0338 13.835C17.0059 13.733 16.9046 13.382 16.8893 13.328C16.7069 12.677 16.6342 12.205 16.6639 11.613C16.6633 11.48 16.6633 11.48 16.6618 11.464C16.645 11.019 16.7079 10.473 16.9145 9.96699C17.1213 9.45999 17.4407 9.08998 17.9114 8.86598C18.358 8.65498 19.0742 8.39998 19.9561 8.13698L23.8645 7.20198C23.8374 7.56198 23.834 7.91599 23.8857 8.25999C24.1608 10.089 23.896 10.22 25.7429 15.035C26.9127 18.083 26.3625 18.353 24.9855 18.692C24.1178 18.906 24.1601 18.827 24.1601 22.078C24.1601 24.11 23.4034 26.211 19.1367 25.533C18.2639 25.395 17.7589 26.076 17.6896 27.429C17.6101 28.992 17.4145 29.872 17.4145 29.936C17.4145 30.071 5.32652 24.993 5.32652 24.993C5.32652 24.993 5.87676 24.03 6.42589 23.115ZM4.5764 21.575C3.99808 21.404 3.36758 21.056 3.03007 20.317C2.79218 19.797 2.82356 19.099 3.03007 17.811C3.23659 16.524 2.29233 16.294 1.37871 15.17C0.747182 14.392 0.639017 13.536 1.05461 12.66L15.0204 9.31798C14.7218 10.098 14.6378 10.866 14.6632 11.54C14.6242 12.354 14.7278 13.027 14.9637 13.868C15.2136 14.759 15.2248 14.83 15.1764 14.935C15.1439 15.005 15.0639 15.102 14.9075 15.231C14.4401 15.617 13.9014 15.41 12.2073 14.174C11.7551 13.845 11.5169 13.676 11.237 13.493C10.0547 12.72 9.08199 12.387 8.04423 12.629C5.71357 13.17 4.54442 15.721 6.69365 18.008C7.16153 18.505 7.61531 18.85 8.08189 19.079C8.4219 19.246 8.57906 19.293 9.08781 19.415C9.00281 19.584 8.7763 19.773 8.48283 19.972C7.71976 20.489 6.64272 20.979 5.57433 21.28C5.33607 21.348 5.07759 21.424 4.72826 21.53C4.70856 21.536 4.65235 21.552 4.5764 21.575ZM18.7913 12.739C20.0369 12.461 22.0705 12.45 23.2303 12.833L23.8573 10.934C22.3123 10.424 19.9259 10.437 18.3559 10.787L18.7913 12.739ZM20.4081 17.009H22.6037V15.009H20.4081V17.009Z" fill="#1A1A1A"/>
</svg>
